<svg version="1.1" id="prefix__Ebene_1" xmlns="http://www.w3.org/2000/svg" x="0" y="0" viewBox="0 0 300 100" xml:space="preserve">
    <style>
        .prefix__st0{fill:#00214a}.prefix__st2{fill:#fff}
    </style>
    <path class="prefix__st0" d="M85.2 73c.5.4 2.7 2.3 6.2 2.3 3.7 0 6.4-2.4 6.4-5.4 0-3.5-2.8-5.1-6.2-6.4-2.4-1-3.6-2-3.6-3.6 0-1.1.8-2.6 3.2-2.6 1.7 0 2.8.7 3.9 1.4.4.3.8.1 1-.3l.7-1.1c.3-.4.1-.8-.2-1-.3-.2-2.4-1.7-5.3-1.7-4.6 0-6.3 3.1-6.3 5.3 0 3.3 2.3 4.9 5.2 6.1 2.8 1.2 4.3 2.3 4.3 4 0 1.5-1.3 2.7-3.2 2.7-2.2 0-3.2-.9-4.6-2-.3-.3-.7-.1-1 .2l-.7 1.2c-.3.5 0 .7.2.9m17.8-8.1c0 5.7 4.6 10.3 10.4 10.3 2.6 0 5-.9 7-2.8.2-.2.3-.6 0-.8l-1.3-1.3c-.2-.1-.4-.2-.7 0-1.4 1.1-2.8 1.9-4.9 1.9-4.1 0-7.2-3.4-7.2-7.4s3.1-7.5 7.2-7.5c1.8 0 3.6.7 5 1.9.3.3.5.3.7 0l1.3-1.3c.2-.2.2-.6 0-.8-2-1.7-4.1-2.7-7-2.7-5.9.2-10.5 4.8-10.5 10.5m23.9 9.5c0 .3.3.5.5.5h1.9c.3 0 .5-.3.5-.5v-8.3h10.5v8.3c0 .3.2.5.5.5h1.9c.3 0 .5-.3.5-.5v-19c0-.3-.3-.5-.5-.5h-1.9c-.3 0-.5.3-.5.5v8h-10.5v-8c0-.3-.2-.5-.5-.5h-1.9c-.3 0-.5.3-.5.5v19zm22.5-9.5c0 5.7 4.6 10.3 10.3 10.3 5.7 0 10.3-4.6 10.3-10.3 0-5.7-4.6-10.4-10.3-10.4-5.8.1-10.3 4.7-10.3 10.4m2.8 0c0-4.1 3.4-7.6 7.4-7.6 4.1 0 7.5 3.5 7.5 7.6s-3.4 7.5-7.5 7.5c-4 .1-7.4-3.3-7.4-7.5m23.2 0c0 5.7 4.6 10.3 10.3 10.3 5.7 0 10.3-4.6 10.3-10.3 0-5.7-4.6-10.4-10.3-10.4-5.8.1-10.3 4.7-10.3 10.4m2.8 0c0-4.1 3.4-7.6 7.4-7.6 4.1 0 7.5 3.5 7.5 7.6s-3.4 7.5-7.5 7.5c-4 .1-7.4-3.3-7.4-7.5m24.4 9.5c0 .3.2.5.5.5h10.2c.3 0 .5-.3.5-.5v-1.6c0-.3-.2-.5-.5-.5h-7.8V55.4c0-.3-.3-.5-.5-.5h-1.9c-.3 0-.5.3-.5.5v19zM89.6 42c.1.2.3.4.5.4h.5c.3 0 .4-.1.5-.3l5.1-13h.1l5.1 13c.1.2.2.3.5.3h.5c.2 0 .5-.2.5-.4l5.4-19.3c.1-.4-.1-.7-.5-.7h-2.6c-.2 0-.5.2-.5.4l-2.9 11.5h-.1L97 22.1c-.1-.2-.2-.3-.5-.3H96c-.3 0-.4.1-.5.3l-4.6 11.8h-.1l-3-11.5c-.1-.2-.3-.4-.5-.4h-2.6c-.4 0-.6.3-.5.7L89.6 42zm34.1-10.2c1.5-.7 2.9-2.3 2.9-4.5 0-3-2.6-5.3-6.1-5.3H114c-.3 0-.5.3-.5.5v19c0 .3.2.5.5.5h7c3.5 0 6.3-2.3 6.3-5.5 0-2.7-1.8-4.1-3.4-4.6v-.1zm-6.6-1.3v-5h3.1c1.5 0 2.4 1 2.4 2.4s-.9 2.6-2.4 2.6h-3.1zm0 8.2v-5.1h3.5c1.4 0 2.5 1.1 2.5 2.5 0 1.5-1.1 2.6-2.5 2.6h-3.5zm22.4 3.7c4.1 0 6.6-2.7 6.6-5.7 0-3.7-3.2-5.4-6-6.5-2.3-.9-3.4-1.9-3.4-3.2 0-1.1.9-2 2.5-2s2.8.8 4 1.6c.3.2.8 0 1-.3l1.1-1.6c.2-.3.1-.8-.2-.9-.6-.4-2.8-1.9-5.7-1.9-4.6 0-6.5 3-6.5 5.5 0 3.4 2.7 5.1 5.4 6.2 2.4 1 3.6 2 3.6 3.4 0 1.2-1.1 2.2-2.6 2.2-1.9 0-3.2-.9-4.3-1.8-.3-.2-.7-.2-1 .2l-1 1.8c-.3.5-.1.6.1.9.9.6 2.7 2.1 6.4 2.1m21.1-10.3c0 5.7 4.6 10.3 10.4 10.3 2.6 0 5-.9 7-2.8.2-.2.3-.6 0-.8l-1.3-1.3c-.2-.1-.4-.2-.7 0-1.4 1.1-2.8 1.9-4.9 1.9-4.1 0-7.2-3.4-7.2-7.4s3.1-7.5 7.2-7.5c1.8 0 3.6.7 5 1.9.3.3.5.3.7 0l1.3-1.3c.2-.2.2-.6 0-.8-2-1.7-4.1-2.7-7-2.7-5.8.1-10.5 4.8-10.5 10.5m22.3 0c0 5.7 4.6 10.3 10.3 10.3 5.7 0 10.3-4.6 10.3-10.3s-4.6-10.4-10.3-10.4c-5.8 0-10.3 4.7-10.3 10.4m2.8 0c0-4.1 3.4-7.6 7.4-7.6 4.1 0 7.5 3.5 7.5 7.6s-3.4 7.5-7.5 7.5c-4 0-7.4-3.4-7.4-7.5m23.8 9.5c0 .3.2.5.5.5h6.6c5.5 0 10.1-4.5 10.1-10.1 0-5.5-4.5-10-10.1-10H210c-.3 0-.5.3-.5.5v19.1zm2.9-2.2V24.8h3.9c4.2 0 7.2 3.1 7.2 7.3 0 4.3-3 7.4-7.2 7.4h-3.9zm20.9 2.2c0 .3.3.5.5.5h1.9c.3 0 .5-.3.5-.5v-19c0-.3-.3-.5-.5-.5h-1.9c-.3 0-.5.3-.5.5v19zm9.7 0c0 .3.3.5.5.5h1.8c.3 0 .5-.3.5-.5v-14h.1L258 42c.3.4.5.4.8.4h.3c.3 0 .5-.2.5-.5V22.6c0-.3-.3-.5-.5-.5h-1.8c-.3 0-.5.3-.5.5v13.6h-.1l-12.1-14c-.4-.4-.6-.4-.9-.4h-.2c-.3 0-.5.2-.5.5v19.3zm22.7-9.5c0 5.7 4.6 10.3 10.3 10.3 4.2 0 7.1-1.9 7.1-1.9.1-.1.2-.3.2-.5v-7c0-.3-.2-.5-.5-.5h-5.3c-.3 0-.5.2-.5.5v1.7c0 .3.2.5.5.5h2.8v3.2c-.3.1-1.9 1-4.3 1-4.1 0-7.2-3.4-7.2-7.4s3.1-7.5 7.2-7.5c1.8 0 3.5.8 4.9 2 .3.3.5.3.7 0 .4-.5.9-.9 1.3-1.4.2-.2.2-.6 0-.8-2-1.7-4.2-2.7-7-2.7-5.6.1-10.2 4.8-10.2 10.5"/>
    <path d="M66.4 85H18.8c-.4 0-.8-.3-.8-.8V15.9c0-.4.3-.8.8-.8h47.6c.4 0 .8.3.8.8v68.3c-.1.5-.4.8-.8.8" fill="#007893"/>
    <path id="prefix__XMLID_21_" class="prefix__st2" d="M34 56.1h-4.2c-.3 0-.6-.3-.6-.6V43.9c0-.3.3-.6.6-.6H34c3.7 0 6.6 2.9 6.6 6.4.1 3.5-2.9 6.4-6.6 6.4zm-2.4-2.2h2.2c2.5 0 4.3-1.8 4.3-4.2 0-2.4-1.8-4.2-4.3-4.2h-2.2v8.4z"/>
    <path id="prefix__XMLID_16_" class="prefix__st2" d="M44.3 56.2c-.3 0-.6-.1-.9-.4-.2-.2-.3-.5-.3-.8 0-.3.1-.6.4-.8l11.1-10.7c.5-.4 1.2-.4 1.7 0 .4.5.4 1.2 0 1.7L45.1 55.9c-.2.2-.5.3-.8.3z"/>
    <path id="prefix__XMLID_13_" class="prefix__st2" d="M39.7 74.5h-.2c-.2 0-.4 0-.7-.3l-7.3-8.3v7.9c0 .3-.3.6-.6.6h-1.1c-.3 0-.6-.3-.6-.6V62c0-.3.3-.6.6-.6h.2c.2 0 .4 0 .7.3l7.3 8.1v-7.7c0-.3.3-.6.6-.6h1.2c.3 0 .6.3.6.6V74c-.1.3-.3.5-.7.5z"/>
    <path id="prefix__XMLID_10_" class="prefix__st2" d="M51 74.5c-3.8 0-6.8-2.9-6.8-6.5s3.1-6.6 6.8-6.6c1.7 0 3.2.6 4.6 1.7.1.1.2.3.2.5s-.1.3-.2.4l-.4.4-.4.4c-.1.1-.4.4-.8 0-.9-.7-1.9-1.1-2.9-1.1-2.4 0-4.3 1.9-4.3 4.3s1.9 4.3 4.3 4.3c1.2 0 2.1-.4 2.5-.5v-1.5H52c-.3 0-.6-.2-.6-.6v-1c0-.3.3-.6.6-.6h3.3c.3 0 .6.3.6.6v4.2c0 .2-.1.4-.2.5-.1 0-2 1.1-4.7 1.1z"/>
    <path id="prefix__XMLID_2_" class="prefix__st2" d="M35.4 38.7c-3.8 0-6.8-2.9-6.8-6.5s3.1-6.6 6.8-6.6c1.8 0 3.2.5 4.6 1.7.1.1.2.3.2.4s-.1.3-.2.4l-.8.8c-.1.1-.3.2-.4.2-.1 0-.3 0-.4-.2-.8-.7-1.9-1.1-3-1.1-2.4 0-4.3 1.9-4.3 4.3s1.9 4.3 4.3 4.3c1.3 0 2.2-.5 3-1.1.2-.2.5-.2.7 0l.9.8c.1.1.2.2.2.4s-.1.3-.2.5c-1.2 1.1-2.8 1.7-4.6 1.7z"/>
    <path id="prefix__XMLID_4_" class="prefix__st2" d="M49.8 38.7c-3.8 0-6.8-2.9-6.8-6.5s3-6.6 6.8-6.6 6.8 2.9 6.8 6.6c0 3.6-2.9 6.5-6.8 6.5zm0-10.9c-2.4 0-4.5 2-4.5 4.4 0 2.4 2 4.3 4.5 4.3s4.5-1.9 4.5-4.3-2-4.4-4.5-4.4z"/>
</svg>
